<svg xmlns="http://www.w3.org/2000/svg" width="640" height="552"><path d="M525.6 315h-24.1l-4 1-4 .9-1.2 1.7-1.3 1.8v7.3l2 1.9 2.2 1.9 4.8.5 4.8.5-8.3 20.5-8.3 20.5-2.9 1.4c-1.5.7-3.6 2-4.6 2.9l-1.7 1.5v7.6l2.6 2 2.7 2.1H511l2.4-2.5 2.5-2.4V380l-2.5-2.5-2.4-2.5h-5.2l.4-1.3.5-1.2h26.6l.5 1.3.4 1.2h-5.3l-2.4 2.5-2.5 2.4v6.1l2.5 2.5 2.4 2.5h26.8l2.7-2 2.6-2.1v-7.3l-2.2-2.3-2.1-2.3h-1.8c-2.5 0-2.7-.4-14.9-30l-11.3-27.5-1.5-1.3-1.6-1.2zm-5.7 26.4c.7 0 1.5 2 3.1 5.8a583 583 0 0 0 2.8 7l.4.8h-12.4l.7-1.8 2.7-7c1.3-3.1 2-4.8 2.7-4.8z"/><path fill="#54ff54" d="m524.5 321-14 .2-14 .3-.3 1.9-.4 1.9 1.4.8c.7.5 3.6.9 6.4.9h5.2l1.3 1.6 1.3 1.5-9.4 23.2c-5.1 12.8-10 24-10.8 25l-1.5 1.7h-4.8l-.5 1.5c-.4.8-.4 2.2 0 3l.5 1.5h23.6l1.3-.9 1.4-.8-.4-2-.3-1.8-4.3-.3-4.2-.3-1-2-1.2-2 1.3-3.2a23 23 0 0 1 2.7-5l1.5-1.7h28.3l2.1 1.5 2.1 1.5 1.2 3.5 1.1 3.4-1 2-1.2 2.1h-6.7l-1.2 1.5-1.2 1.5 1.2 1.5 1.3 1.6 12.1-.3 12.1-.3v-5l-2.6-.3-2.7-.3-1.4-1.7a427 427 0 0 1-12.9-29.5L524.5 321zm-7 11 2.4.2 2.4.3 4.9 11.5 4.9 11.5-.6 2.3-.5 2.2h-22l-.6-2-.7-2.2 4.9-11.9 4.8-12z"/><path d="m419.2 389.8-1.2-1.2v-10.7l1.1-2.1c.6-1.1 8.3-11.2 17-22.4 18.6-23.9 17.6-21.4 9-21.4h-6.8l-.6 6.2-.6 6.3-2.6 2.2-2.6 2.3h-5.7l-2.3-2-2.4-1.8-.3-13.7-.4-13.6 1.2-1.5 1.2-1.4h49.4l1.2 1.2 1.2 1.2v13.4l-16.5 21c-9 11.6-16.5 21.3-16.5 21.6 0 .4 4.3.6 9.5.6h9.5v-11.2l3-2.9 2.8-2.9h5.1l2.8 2.4 2.8 2.4.4 13.1.3 13.2-1.2 1.4-1.2 1.5h-55.4Z"/><path d="m491 .2-8.7.8c-13 1.3-23.4 5-27.4 9.6-.9 1-29.5 54-63.5 117.8l-61.9 115.8-.3-42.6-.2-42.5-1.8-1c-2.4-1.3-17.5-4.1-22-4.1h-3.4l-5.6-6.3a172.5 172.5 0 0 0-27-24.5l-8.7-6.2-13-6.4-13-6.5-9.5-3c-5.2-1.6-13.8-3.8-19-5l-9.5-2-12.8-1-12.9-1.2-9.6 1-9.7 1.2-10 2.6C65.9 116.5 14.3 186.4 2.4 285L.6 299.5v54l1.7 12c2.3 15.9 5.8 31.5 10.3 45l3.6 11 6.2 13a211.3 211.3 0 0 0 23 38l6 8 12 12 12.1 12.1 8 6A406 406 0 0 0 101 523l9.5 6.2 15 7.4 15 7.4 12 4 12 4h143.3l1-1.3 1.1-1.3.3-45 .3-44.9 14.5-26c8-14.4 14.9-26.3 15.4-26.6l.9-.4 3.2 10c18.2 56.5 55.3 102.8 99.5 123.9l9.5 4.5 8.7 2.5c4.8 1.4 12.6 3 17.4 3.7l8.7 1.1 7.1-.7a124 124 0 0 0 15.1-2.6l8-2 9.2-4.4 9.2-4.3 9.1-6.3a171 171 0 0 0 31.8-28.9l7.5-8.5 8.8-13.3c28.5-43 43.5-91.9 45.6-148.7l.6-17-1.2-14.9a309 309 0 0 0-9-54l-4-15.5-5.2-13.8-5.1-13.8-7-13.7-6.9-13.6-8.8-13.4-8.8-13.3-7.5-8.5c-18.8-21.5-44.3-39.8-61.5-44.2-5.5-1.3-7.4 3.3 16.7-40.7l21-38.5-.2-2-.3-2.1-11-3.6A197.2 197.2 0 0 0 500.4 1L491 .2zM489.8 159h5.8l6 1.5c14.3 3.7 26.7 11.8 40.7 26.5l8.6 9 6.5 9.7 6.5 9.8 5.5 11.5c9.9 20.9 16 41 19.2 63.5l1.7 12v36l-1.2 8.5c-8.3 57.4-33.7 102.9-69.6 124.5l-6 3.6-7.8 2.4-7.8 2.5h-9.2l-9.2-.1-5.5-1.5c-48-12.7-86.6-71.9-90.6-138.7l-.7-11.2 46-83.7 45.8-83.7 4.8-1a61 61 0 0 1 10.5-1.1zM178 163l9.7 1c21 2.3 48 12.4 66.3 24.8l5.5 3.7v13.8l-.3 62.9-.2 49.1-38-.6-38-.6-4 8-4.1 8.1-2.1 7.7-2 7.6-.2 11.5v11.5l1.7 6.5 1.7 6.5 3.8 7.5 3.9 7.5 36.1-.3 36.2-.3V480h-45.8l-45.7-.1-5.2-1.9a139.5 139.5 0 0 1-67.9-52.6l-6.4-8.9-6-12-5.9-12-4-12.2-4-12.1-2.5-12.4a307 307 0 0 1-3.7-24.3l-1.2-12 .6-13.5.6-13.5 1.6-9a160 160 0 0 1 60-97.8l9-6.7 8.5-4.4c4.7-2.5 12-5.6 16.1-7l7.6-2.5 9.1-1 9.2-1.1z"/><path fill="#54ff54" d="M472 374.5V363h-4.8l-.6 1.6a36 36 0 0 0-.6 7.4v6l-2 1-1.9 1H436l-1.2-2.4-1-2.5 18-23 18.2-23.2V321h-44v20.8l1.5 1.2 1.5 1.2 1.5-.6 1.5-.5v-12.2l1-2 1-1.9h24l1 2 1 2-18 23.2-18 23.1v8.7h48zm-65.8-99.3c77-140.4 140.1-256 140.4-256.7l.6-1.4-9.4-3c-5.1-1.6-14-4-19.8-5.2l-10.5-2.4h-32L470 8.3c-3 1-6.9 2.7-8.6 3.8l-3 1.9-64.5 120.5L329.5 255H324v-92.7l-5.3-1.3-5.2-1.3-14.2-.5-14.2-.4-6.8 2c-3.7 1.2-8.2 3-10 4l-3 2-.7 107.9-1 184.8-.5 77 1.6-3 141.5-258.3z"/></svg>
