<?xml version="1.0" encoding="UTF-8" standalone="no"?>
<!-- Created with Inkscape (http://www.inkscape.org/) -->

<svg
   id="svg2"
   version="1.1"
   inkscape:version="0.91 r13725"
   xml:space="preserve"
   width="220.5752"
   height="189.79008"
   viewBox="0 0 220.57519 189.79009"
   sodipodi:docname="hippo_key_KSP.svg"
   xmlns:inkscape="http://www.inkscape.org/namespaces/inkscape"
   xmlns:sodipodi="http://sodipodi.sourceforge.net/DTD/sodipodi-0.dtd"
   xmlns="http://www.w3.org/2000/svg"
   xmlns:svg="http://www.w3.org/2000/svg"
   xmlns:rdf="http://www.w3.org/1999/02/22-rdf-syntax-ns#"
   xmlns:cc="http://creativecommons.org/ns#"
   xmlns:dc="http://purl.org/dc/elements/1.1/"><metadata
     id="metadata8"><rdf:RDF><cc:Work
         rdf:about=""><dc:format>image/svg+xml</dc:format><dc:type
           rdf:resource="http://purl.org/dc/dcmitype/StillImage" /></cc:Work></rdf:RDF></metadata><defs
     id="defs6" /><sodipodi:namedview
     pagecolor="#ffffff"
     bordercolor="#666666"
     borderopacity="1"
     objecttolerance="10"
     gridtolerance="10"
     guidetolerance="10"
     inkscape:pageopacity="0"
     inkscape:pageshadow="2"
     inkscape:window-width="1440"
     inkscape:window-height="849"
     id="namedview4"
     showgrid="false"
     fit-margin-top="0"
     fit-margin-left="0"
     fit-margin-right="0"
     fit-margin-bottom="0"
     inkscape:zoom="0.89702957"
     inkscape:cx="330.16736"
     inkscape:cy="-80.432394"
     inkscape:window-x="1024"
     inkscape:window-y="177"
     inkscape:window-maximized="1"
     inkscape:current-layer="g12"
     inkscape:showpageshadow="2"
     inkscape:pagecheckerboard="0"
     inkscape:deskcolor="#d1d1d1" /><g
     id="g10"
     inkscape:groupmode="layer"
     inkscape:label="finale-katka"
     transform="matrix(1.25,0,0,-1.25,-109.54178,998.64926)"><g
       id="g12"><g
         id="g82"
         transform="matrix(1,0,0,-1,0,841.88977)"><path
           d="m 149.496,116.703 h 53.399 c 6.527,0 11.781,5.254 11.781,11.781 v 53.399 c 0,6.523 -5.254,11.777 -11.781,11.777 h -53.399 c -6.523,0 -11.777,-5.254 -11.777,-11.777 v -53.399 c 0,-6.527 5.254,-11.781 11.777,-11.781 z"
           style="fill:none;stroke:#000000;stroke-width:2.28487;stroke-linecap:butt;stroke-linejoin:miter;stroke-miterlimit:4;stroke-dasharray:none;stroke-opacity:1"
           id="path84"
           inkscape:connector-curvature="0" /></g><g
         id="g86"
         transform="matrix(1,0,0,-1,0,841.88977)"><path
           d="M 137.441,168.82 H 98.059 c -5.266,0 -9.504,-4.238 -9.504,-9.504 v -43.074 c 0,-5.265 4.238,-9.504 9.504,-9.504 h 43.074 c 5.265,0 9.5,4.239 9.5,9.504"
           style="fill:none;stroke:#000000;stroke-width:1.84316;stroke-linecap:butt;stroke-linejoin:miter;stroke-miterlimit:4;stroke-dasharray:none;stroke-opacity:1"
           id="path88"
           inkscape:connector-curvature="0" /></g><g
         id="g90"
         transform="matrix(1,0,0,-1,0,841.88977)"><path
           d="m 201.094,116.242 c 0,-5.265 4.238,-9.504 9.5,-9.504 h 43.078 c 5.262,0 9.5,4.239 9.5,9.504 v 43.074 c 0,5.266 -4.238,9.504 -9.5,9.504 h -39.168"
           style="fill:none;stroke:#000000;stroke-width:1.84316;stroke-linecap:butt;stroke-linejoin:miter;stroke-miterlimit:4;stroke-dasharray:none;stroke-opacity:1"
           id="path92"
           inkscape:connector-curvature="0" /></g><g
         id="g94"
         transform="matrix(1,0,0,-1,0,841.88977)"><path
           d="m 129.168,104.074 c 0.129,7.324 -6.492,7.66 -14.5,7.66 -8.008,0 -14.367,0.18 -14.496,-7.66 -0.07,-4.23 6.488,-7.66 14.496,-7.66 8.008,0 14.426,3.43 14.5,7.66 z"
           style="fill:#ffffff;fill-opacity:1;fill-rule:nonzero;stroke:#000000;stroke-width:2.26404;stroke-linecap:butt;stroke-linejoin:miter;stroke-miterlimit:4;stroke-dasharray:none;stroke-opacity:1"
           id="path96"
           inkscape:connector-curvature="0" /></g><g
         id="g98"
         transform="matrix(1,0,0,-1,0,841.88977)"><path
           d="m 249.715,106.809 c 1.148,9.144 -7.442,9.023 -16.777,8.754 -9.266,-0.262 -16.782,-1.856 -16.782,-8.754 0,-4.832 7.516,-8.754 16.782,-8.754 9.265,0 16.175,3.957 16.777,8.754 z"
           style="fill:#ffffff;fill-opacity:1;fill-rule:nonzero;stroke:#000000;stroke-width:2.26404;stroke-linecap:butt;stroke-linejoin:miter;stroke-miterlimit:4;stroke-dasharray:none;stroke-opacity:1"
           id="path100"
           inkscape:connector-curvature="0" /></g><g
         id="g102"
         transform="matrix(1,0,0,-1,0,841.88977)"><path
           d="m 133.824,103.797 c 0.106,-11.527 5.129,-22.969 39.84,-22.215 30.602,0.664 38.465,9.828 38.359,22.238"
           style="fill:none;stroke:#000000;stroke-width:2.26488;stroke-linecap:round;stroke-linejoin:miter;stroke-miterlimit:4;stroke-dasharray:none;stroke-opacity:1"
           id="path104"
           inkscape:connector-curvature="0" /></g><g
         id="g106"
         transform="matrix(1,0,0,-1,0,841.88977)"><path
           d="m 151.105,83.285 c -5.312,-8.359 -13.757,-28.66 23.532,-29.375 32.902,-0.633 26.676,24.496 19.715,29.094"
           style="fill:none;stroke:#000000;stroke-width:2.26404;stroke-linecap:butt;stroke-linejoin:miter;stroke-miterlimit:4;stroke-dasharray:none;stroke-opacity:1"
           id="path108"
           inkscape:connector-curvature="0" /></g><path
         d="m 166.91,776.437 c -2.922,0 -5.289,-3.493 -5.289,-7.801 0,-4.309 2.367,-7.801 5.289,-7.801 2.918,0 5.285,3.492 5.285,7.801 0,4.308 -2.367,7.801 -5.285,7.801 z m 0.465,-6.047 c 0.816,0 1.484,-1.645 1.48,-3.676 0,-2.031 -0.664,-3.676 -1.48,-3.676 -0.82,0.004 -1.484,1.649 -1.484,3.676 0,2.027 0.664,3.676 1.484,3.676 z"
         style="fill:#000000;fill-opacity:1;fill-rule:nonzero;stroke:none"
         id="path110"
         inkscape:connector-curvature="0" /><g
         id="g112"
         transform="matrix(1,0,0,-1,0,841.88977)"><path
           d="m 152.594,58.012 c 0,0 -0.18,-13.508 -9.098,-11.535 -8.898,1.972 -10.609,11.238 -9.094,13.089 0.274,0.329 1.254,3.524 13.543,3.934"
           style="fill:none;stroke:#000000;stroke-width:2.26404;stroke-linecap:butt;stroke-linejoin:miter;stroke-miterlimit:4;stroke-dasharray:none;stroke-opacity:1"
           id="path114"
           inkscape:connector-curvature="0" /></g><path
         d="m 149.316,781.995 c 0.274,0.403 -4.136,12.082 -8.695,4.403 -3.012,-5.067 7.93,-5.286 8.695,-4.403 z"
         style="fill:#000000;fill-opacity:1;fill-rule:nonzero;stroke:none"
         id="path116"
         inkscape:connector-curvature="0" /><path
         d="m 193.016,784.194 c 0,0 -0.637,11.364 6.343,6.704 6.051,-4.039 -6.316,-6.727 -6.343,-6.704 z"
         style="fill:#000000;fill-opacity:1;fill-rule:nonzero;stroke:none"
         id="path118"
         inkscape:connector-curvature="0" /><g
         id="g120"
         transform="matrix(1,0,0,-1,0,841.88977)"><path
           d="m 188.438,55.57 c 0,0 2.644,-18.25 14.378,-8.707 11.735,9.543 -6.382,13.543 -6.382,13.543"
           style="fill:none;stroke:#000000;stroke-width:2.26404;stroke-linecap:butt;stroke-linejoin:miter;stroke-miterlimit:4;stroke-dasharray:none;stroke-opacity:1"
           id="path122"
           inkscape:connector-curvature="0" /></g><g
         id="g124"
         transform="matrix(1,0,0,-1,0,841.88977)"><path
           d="m 186.234,102.445 c 0,0 -4.05,-4.695 4.09,-4.613 8.141,0.078 4.52,5.371 4.52,5.371"
           style="fill:none;stroke:#000000;stroke-width:2.26404;stroke-linecap:round;stroke-linejoin:miter;stroke-miterlimit:4;stroke-dasharray:none;stroke-opacity:1"
           id="path126"
           inkscape:connector-curvature="0" /></g><path
         d="m 180.492,776.437 c -2.918,0 -5.285,-3.493 -5.285,-7.801 0,-4.309 2.367,-7.801 5.285,-7.801 2.918,0 5.285,3.492 5.285,7.801 0.004,4.308 -2.363,7.801 -5.285,7.801 z m 0.465,-6.047 c 0.82,0 1.484,-1.645 1.484,-3.676 0,-2.031 -0.664,-3.676 -1.484,-3.676 -0.816,0.004 -1.48,1.649 -1.48,3.676 0,2.027 0.664,3.676 1.48,3.676 z"
         style="fill:#000000;fill-opacity:1;fill-rule:nonzero;stroke:none"
         id="path128"
         inkscape:connector-curvature="0" /><g
         id="g130"
         transform="matrix(1,0,0,-1,0,841.88977)"><path
           d="m 163.977,102.582 c 0,0 2.57,-4.703 -4.735,-3.945 -8.097,0.84 -3.66,5.992 -3.66,5.992"
           style="fill:none;stroke:#000000;stroke-width:2.26404;stroke-linecap:round;stroke-linejoin:miter;stroke-miterlimit:4;stroke-dasharray:none;stroke-opacity:1"
           id="path132"
           inkscape:connector-curvature="0" /></g><path
         d="m 187.254,704.448 v -5.015 c -1.949,0.937 -3.789,1.633 -5.516,2.093 -1.718,0.458 -3.386,0.688 -5,0.688 -2.793,0 -4.949,-0.543 -6.468,-1.625 -1.512,-1.086 -2.266,-2.625 -2.266,-4.625 0,-1.68 0.504,-2.945 1.516,-3.797 1.007,-0.855 2.914,-1.547 5.718,-2.078 l 3.11,-0.625 c 3.82,-0.73 6.64,-2.016 8.453,-3.859 1.82,-1.836 2.734,-4.289 2.734,-7.36 0,-3.679 -1.234,-6.465 -3.703,-8.359 -2.461,-1.899 -6.062,-2.844 -10.812,-2.844 -1.793,0 -3.704,0.203 -5.735,0.609 -2.023,0.407 -4.117,1.004 -6.281,1.797 v 5.282 c 2.082,-1.168 4.125,-2.047 6.125,-2.641 2,-0.594 3.961,-0.891 5.891,-0.891 2.925,0 5.179,0.571 6.765,1.719 1.594,1.156 2.391,2.801 2.391,4.938 0,1.863 -0.574,3.316 -1.719,4.359 -1.137,1.051 -3.008,1.844 -5.609,2.375 l -3.125,0.609 c -3.825,0.758 -6.594,1.953 -8.313,3.578 -1.711,1.625 -2.562,3.883 -2.562,6.782 0,3.351 1.179,5.992 3.547,7.922 2.363,1.925 5.617,2.89 9.765,2.89 1.781,0 3.594,-0.164 5.438,-0.484 1.843,-0.324 3.726,-0.805 5.656,-1.438 z"
         style="fill:#000000;fill-opacity:1;fill-rule:nonzero;stroke:none"
         id="path134"
         inkscape:connector-curvature="0" /><g
         id="g136"
         transform="matrix(1,0,0,-1,0,841.88977)"><path
           d="m 229.637,127.574 v 9.86 h 4.468 c 1.657,0 2.93,-0.426 3.829,-1.282 0.906,-0.851 1.359,-2.07 1.359,-3.656 0,-1.57 -0.453,-2.785 -1.359,-3.641 -0.899,-0.851 -2.172,-1.281 -3.829,-1.281 z m -3.547,-2.922 h 8.015 c 2.946,0 5.172,0.668 6.672,2 1.508,1.336 2.266,3.282 2.266,5.844 0,2.594 -0.758,4.555 -2.266,5.875 -1.5,1.324 -3.726,1.984 -6.672,1.984 h -4.468 v 10.547 h -3.547 z"
           style="fill:#000000;fill-opacity:1;fill-rule:nonzero;stroke:#000000;stroke-width:0.972725;stroke-linecap:butt;stroke-linejoin:miter;stroke-miterlimit:4;stroke-dasharray:none;stroke-opacity:1"
           id="path138"
           inkscape:connector-curvature="0" /></g><g
         id="g140"
         transform="matrix(1,0,0,-1,0,841.88977)"><path
           d="m 107.109,124.652 h 3.547 v 11.094 l 11.782,-11.094 h 4.578 l -13.032,12.235 13.954,14.015 h -4.672 l -12.61,-12.64 v 12.64 h -3.547 z"
           style="fill:#000000;fill-opacity:1;fill-rule:nonzero;stroke:#000000;stroke-width:1.13202;stroke-linecap:butt;stroke-linejoin:miter;stroke-miterlimit:4;stroke-dasharray:none;stroke-opacity:1"
           id="path142"
           inkscape:connector-curvature="0" /></g></g></g></svg>
