<svg xmlns="http://www.w3.org/2000/svg" width="3322.5" height="2457.6" viewBox="0 0 3323 2458"><path d="M4596-148c136-223 476-431 490-427 9 2 14 9 14 18 0 30-326 186-476 435-22 35-62 29-28-26zm1151 354c-84-111-557-256-929-172-46 10-68-24-1-39 382-82 849 61 952 179 35 40-7 53-22 32zM3838 425c69-240 111-360 234-538 28-38 58-15 36 16-193 273-200 463-235 531-9 17-35 8-35-9zm240 63c-26 16-41-18-13-36 165-82 465-31 669 78 21 11 4 43-19 32-214-109-494-148-637-74z" style="fill:#657f00" transform="translate(-3433 790)"/><path d="M3772 957c336-500 928 0 1219-246 67-66-186-190-168-320 17-124 306-104 352-100 262 25 587 249 836 66 173-129-69-228-37-345 83-173 297-102 452-101 271 24 477-443-101-571-327-73-835 192-1032 163-155-22-27-191-76-233-41-36-94-41-811 499-135 108-187 84-186-54 2-433-533 686-636 1083l-7 25c-12 23-55 19-52-23 13-171 724-1861 756-1027 1 29 438-311 656-449 85-54 218-131 289-111 133 36-2 221 72 234 186 33 685-250 1064-157 315 77 463 291 362 491-157 310-470 121-635 188-173 71 136 249 24 367-326 342-662-5-1077 10-417 16 125 233 6 393-311 304-909-227-1226 254-34 53-88 30-44-36z" style="fill:#657f00" transform="translate(-3433 790)"/><path d="M3434 1620C3663-453 6064-367 6094-351c20 10 24 42-2 54-1231-26-2442 564-2599 1922-7 57-66 57-59-5z" style="fill:#657f00" transform="translate(-3433 790)"/></svg>