<svg xmlns="http://www.w3.org/2000/svg" width="247.3" height="281.2"><path d="M433.2-32 425-20l-46.6 13-8.2-13-9 13h17.2l.4 1.3 46.4-13h15.6l47 13 .4-1.3h17.2l-8.3-13-8.9 13L441-20zm-8.9 14.8v40.8h-46V-3.9h-17.1v25h-26.6l-9.2-8.2-16.2 16.3v26.5l35.8 134-18.3 31.7-.2.4s106.9 61.5 212.8.3l-2-3.3-16.8-29.1 36-134V29.2L540 12.9l-8.3 8.3h-26.5v-25H488v27.4h-46.6v-40.8zm-1.4 1.4-43 11.6v26.6h43zm20.4 0v38.2h43V-4.2Zm-117.7 34L333 25H423l8.3 5.8v44.3l2.7 1.4 2.8-1.4V30.8l8-5.8H533.4l6.7-6.7.4.4-43 160.6h-36a92.5 92.5 0 0 0-4-19.6 43.4 43.4 0 0 0-8.2-15 20.6 20.6 0 0 0-12.5-7V116H431v21.6a22 22 0 0 0-12.8 7 42.4 42.4 0 0 0-7.6 11.6c-8-2.6-12.7-5.8-12.7-5.8l-2.1 3.2s5 3.3 13.4 6a94.2 94.2 0 0 0-5.2 19.7h-35.8l-43-160.6Zm218 3.6 7.3 7.3L508.4 188h-46.6v-4.8h38.6zm-221.6 0 43.2 161.3h38.6v4.8h-46.6L314.7 29.1Zm-9 16 40.1 149.8h-4.6L313 55.2Zm239.6 0v17.4l-35.5 132.4h-4.6zM436.8 141.5c3.9.7 7 2.7 9.6 5.7 2.2 2.4 4 5.5 5.4 8.7a69.2 69.2 0 0 1-15 3.1zm-5.8 0v17.8c-6.3 0-12-.8-16.6-2 1.8-3.8 4-7.3 6.6-10.1 2.8-3 6-5 10-5.7zm22.3 18 .5 1.4a88.5 88.5 0 0 1 3.8 18.3c-2.4 0-5.4.2-8.6.7-3.4.5-7 1.2-10 2.6l-2.2 1.4v-21c5.2-.5 10.7-1.5 16.5-3.4zm-40.4 1.3a70.1 70.1 0 0 0 18 2.3V184l-2.3-1.4c-3-1.4-6.5-2.1-9.9-2.6a73.8 73.8 0 0 0-10.8-.7c.6-3.5 2-10.9 4.9-18.3v-.1zM347 194c11 6.6 86.2 48.3 171.8.3l15.2 26.3c-93.5 51.7-186 8.1-202.2-.3z" style="fill:#000" transform="translate(-309.2 32)"/><path d="m362 208 3.4 1.3L361 220q-.8 2-1.6 3-1.1 1.3-2.8 1.7-1.6.3-3.7-.6-2.5-1-3.3-2.9-.8-2 .3-4.6l3.3.9q-.5 1.5-.4 2.2.2 1.1 1.3 1.6 1.2.5 2 0 .6-.5 1.5-2.5zm5.6 2.2 3.5 1-3 9.4-.7 3q-.1 1 .5 2 .7.9 2.1 1.4 1.5.4 2.5 0 1-.3 1.3-1.2.5-.8 1.1-2.9l3-9.5 3.5 1-2.8 9.1q-1 3.2-1.7 4.4-.7 1.2-1.7 1.8-1 .7-2.5.8-1.4.1-3.5-.5-2.5-.8-3.6-1.8-1-1-1.5-2-.5-1.2-.4-2.3.1-1.6 1-4.5zm12.1 22.6 4-17.7 7.6 1.7q2.8.6 4 1.4 1.2.8 1.6 2.2.5 1.3.2 3-.5 2-2 3-1.4 1-3.8.8 1 1 1.6 1.9.6 1 1.4 3.3l1.3 4-4.2-1-1.7-4.4-1.3-3q-.4-.7-1-1-.5-.4-1.7-.6l-.7-.2-1.7 7.4zm6-9.4 2.6.6q2.5.6 3.2.5.7 0 1.2-.5t.7-1.3q.2-.9-.2-1.5-.3-.7-1.2-1l-2.6-.7-2.8-.6zm28 15.6-3.9-.5-1-4.3-7-1.1-2.2 3.9-3.8-.6 9.6-17 3.9.6zm-5.5-8-1.5-7-3.4 6.2zm13.6 8.7.7-18.2 3.6.2-.2 7.1 7.1.3.3-7.2 3.7.2-.7 18h-3.6l.2-8-7.1-.2-.3 7.9zm18.3.5-.9-18.1 7.7-.4q2.9-.2 4.2.2 1.4.5 2.2 1.7.9 1.2 1 2.8 0 2-1 3.4-1.2 1.4-3.6 1.9 1.3.6 2 1.4.9.8 2.3 2.8l2.4 3.4-4.4.3-2.8-3.8-2-2.6q-.6-.5-1.2-.7-.6-.2-1.9-.1h-.7l.4 7.6zm3.1-10.7 2.8-.1q2.6-.1 3.2-.4.7-.3 1-.8.4-.6.3-1.4 0-1-.6-1.4-.5-.6-1.4-.7H446l-2.9.2zm13.2.9q-.5-2.8.1-4.8.4-1.4 1.3-2.7 1-1.2 2-2 1.7-.9 3.9-1.2 4-.6 6.7 1.5t3.3 6.5q.7 4.4-1.3 7.2t-6 3.3q-4 .6-6.7-1.5-2.7-2-3.3-6.3zm3.7-.7q.4 3 2 4.4 1.7 1.4 3.9 1 2.1-.3 3.3-2 1.1-1.8.7-5-.5-3-2-4.3-1.6-1.3-3.9-1-2.2.3-3.3 2-1.2 1.8-.7 4.9zm17.8 6.3-4.4-17.6 3.5-.8 10.1 10-3-11.8 3.4-.8 4.4 17.6-3.6.9-10-9.8 2.9 11.5zm26.4-14.7 3.7-.1q.2 3-1 5-1.4 2-4.1 3-3.4 1.2-6.5-.3-3-1.6-4.4-5.6-1.5-4.3-.1-7.4 1.3-3.2 5-4.4 3-1.2 5.7 0 1.5.7 2.8 2.5l-3.1 2q-.8-1.2-2-1.6-1.2-.4-2.6 0-2 .7-2.6 2.5-.7 1.8.4 4.9 1.1 3.2 2.8 4.2 1.6 1 3.5.3 1.4-.5 2-1.7.7-1.3.5-3.3zm23.3-3-3.6 1.6-3.2-3-6.6 3 .4 4.4-3.5 1.7-1.3-19.5 3.5-1.6zm-9.2-3.7-5-5 .5 7.1z" aria-label="JURA HRONCA" style="-inkscape-font-specification:'Arial, Bold';stroke-width:3.847" transform="translate(-313.2 32)"/><path d="M370.4 100.7v-3.3h7v7.9q-1 1.2-3 2.1-2 1-4 1-2.3 0-4.1-1.3-1.9-1.1-3-3.5-1-2.3-1-5.5t1-5.5q1.2-2.4 2.9-3.5t4.1-1.1q2.9 0 4.6 1.4 1.8 1.5 2.3 4.3l-3.3.8q-.3-1.5-1.3-2.3-1-.8-2.3-.8-2 0-3.4 1.6-1.3 1.6-1.3 5 0 3.5 1.4 5.3 1.2 1.6 3.3 1.6 1 0 2-.4 1-.5 1.8-1.3v-2.5zm14.2 7.3v-8.3l-5.9-11.4h3.8l3.8 7.8 3.8-7.8h3.7l-6 11.4v8.3zm10.8 0V88.3h4.9l2.9 13.4 2.9-13.4h4.9V108h-3V92.5l-3.2 15.5h-3.2l-3.2-15.5V108zm18.9 0V88.3h3.1l6.6 13.1V88.3h3V108h-3.2L417.3 95V108zm30.7 0h-3.5l-1.4-4.5h-6.5l-1.3 4.5H429l6.2-19.7h3.5zm-6-7.8-2.2-7.3-2.2 7.3zM435.3 87l1.5-4h3.5l-3 4zm10 21v-3.6l8.6-12.8h-7.6v-3.3h11.8v3l-8.8 13.4h9.2v3.3zm15.2 0V88.3h3.2V108zm6.3-19.7h3.2V99q0 2.4.2 3.2.2 1.3 1 2t2.1.7q1.2 0 1.9-.5t1-1.4q.2-.9.2-3.8V88.3h3.3v10.3q0 4-.5 5.8-.4 1.7-1.9 2.8-1.4 1.1-3.9 1.1t-4-.9q-1.3-.9-2-2.5-.6-1.7-.6-6.1zM483 108V88.3h4.8l3 13.4 2.9-13.4h4.8V108h-3V92.5l-3.2 15.5h-3.1L486 92.5V108z" aria-label="GYMNÁZIUM" style="-inkscape-font-specification:'Arial, Bold Condensed';fill:#000;stroke-width:4.17618" transform="translate(-309.2 32)"/></svg>