<svg xmlns="http://www.w3.org/2000/svg" width="169.2" height="202.1" viewBox="0 0 44.8 53.5"><path fill="#000153" d="m34.5 0-1 1a121.5 121.5 0 0 1-4 4 4219 4219 0 0 1-5.2 5.2c0 .3.4.3 4.8.3 4.6 0 4.8 0 4.8.2l.2 4.5c.2 5.3.5 8 1 11 1.3 7.1.8 10.3-2.1 14.2a28.2 28.2 0 0 1-4.6 3.9 14.8 14.8 0 0 1-8.2 2.1c-2.7-.1-5.2-1-7.4-2.7-5-3.5-7-9.2-5.1-14.2 1.3-3.5 4.4-6.5 8-7.8 2-.7 4.7-.9 6.3-.4 4.4 1.1 9 5.9 9.7 10a6 6 0 0 1-.2 3 39.6 39.6 0 0 0-.7 1.8c-1.5 3.3-4.8 6-8.2 6.6-.9.2-3 .3-3.8.1-4.2-.8-7.8-5.4-7.9-10 0-2.1.7-3.8 2.4-5.3 3.5-3.3 8.4-3.6 11.6-.8 3.5 3 3.8 7.3.6 10.1-2.8 2.6-6.3 2.7-8.6.3-1.8-1.8-2.5-4.3-1.6-6 1-2.2 4.5-3.3 6.5-2 2 1 2.6 3.2 1.4 4.6a4 4 0 0 1-.8.7c-.2 0-.3 0-.2-.5a2 2 0 0 0-2-2.2c-1.1 0-2.1 1.3-1.8 2.5.1.4 1 1.4 1.6 1.6.7.2 2 .2 2.6-.1.8-.3 1.8-1.2 2.1-2 .3-.3.3-.7.3-1.6 0-1 0-1.3-.4-2a6 6 0 0 0-2.6-2.4 4 4 0 0 0-2-.4c-1.3 0-2 .1-2.2.3a8 8 0 0 0-3 1.8 4.4 4.4 0 0 0-1.2 4c.4 3.4 3 6.1 6.2 6.6 3.6.6 7.7-2 9-5.6a8 8 0 0 0 0-4.6 9.6 9.6 0 0 0-8.3-6.3 12 12 0 0 0-5 1c-.7.2-1 .3-2 1.1a8.2 8.2 0 0 0-4 7c.1 4.6 3 9 7 10.9a11 11 0 0 0 8.8-.3 13 13 0 0 0 7.6-9.3 7 7 0 0 0 0-3.5c-.7-2.3-2.3-4.8-4.4-6.8a14.2 14.2 0 0 0-5.5-3.4c-1.3-.5-4-.6-5.5-.3A14.9 14.9 0 0 0 6 30.4a13 13 0 0 0 1.3 9c2.4 4.5 7.1 7.7 11.8 8.3A16.8 16.8 0 0 0 35.9 38c1.4-3 1.6-6.3.5-12-.5-3.3-.8-6.5-1-13l-.2-2.5h4.4c1.5 0 3 .1 5.2-.1l-4-4.4-5.2-5zM0 14v39.4h44.8V14h-4.6v35H4.3V18.2h24.2V14H0Z"/></svg>
